<?xml version="1.0" encoding="UTF-8"?>
<svg width="57px" height="61px" viewBox="0 0 57 61" version="1.1" xmlns="http://www.w3.org/2000/svg" xmlns:xlink="http://www.w3.org/1999/xlink">
    <!-- Generator: Sketch 52.5 (67469) - http://www.bohemiancoding.com/sketch -->
    <title>Untitled 3</title>
    <desc>Created with Sketch.</desc>
    <g id="Page-1" stroke="none" stroke-width="1" fill="none" fill-rule="evenodd">
        <g id="noun_Arrow-Up_1195141" transform="translate(28.500000, 30.500000) scale(1, -1) translate(-28.500000, -30.500000) " fill="#000000">
            <path d="M55.7285767,9.6865234 C55.5903931,9.7519531 55.444397,9.7827148 55.3008423,9.7827148 C54.9268189,9.7832031 54.5674439,9.5717773 54.3965454,9.2109375 C53.5020142,7.3222656 52.3387451,4.6646118 52.2678833,4.5029907 C47.9228516,21.5922851 29.9780273,52.993164 2.0297852,60.0830078 C1.9472657,60.1040039 1.8642579,60.1137695 1.7827149,60.1137695 C1.3364258,60.1137695 0.9291993,59.8125 0.8144532,59.3598633 C0.678711,58.8242188 1.0024415,58.2802735 1.5375977,58.1445313 C28.6670533,51.2622681 46.0980835,20.6973877 50.3183594,4.0672608 C49.6906739,4.6344605 47.1270142,6.9804688 46.1167603,7.8979493 C45.7080689,8.2700196 45.0752564,8.2387696 44.7041626,7.8300782 C44.3330688,7.4213868 44.3633423,6.7890626 44.7720337,6.4174805 C45.7793579,5.5019532 49.3067017,2.2734375 51.2666626,0.538086 C51.5044556,0.3276368 51.8267212,0.2431641 52.1387329,0.3085938 C52.4487915,0.375 52.7095337,0.5844727 52.8403931,0.8740235 C53.4888306,2.3041993 55.3223267,6.4931641 56.2041626,8.3544923 C56.4404907,8.8535156 56.2276001,9.4501953 55.7285767,9.6865234 Z" id="Path"></path>
        </g>
    </g>
</svg>