<?xml version="1.0" encoding="UTF-8"?>
<svg width="45px" height="57px" viewBox="0 0 45 57" version="1.1" xmlns="http://www.w3.org/2000/svg" xmlns:xlink="http://www.w3.org/1999/xlink">
    <!-- Generator: Sketch 52.5 (67469) - http://www.bohemiancoding.com/sketch -->
    <title>Untitled 5</title>
    <desc>Created with Sketch.</desc>
    <g id="Page-1" stroke="none" stroke-width="1" fill="none" fill-rule="evenodd">
        <g id="noun_two-arrow-direction_1195149" transform="translate(22.500000, 28.500000) rotate(118.000000) translate(-22.500000, -28.500000) translate(-4.000000, 18.000000)" fill="#000000" fill-rule="nonzero">
            <path d="M47.1987305,8.5008507 C46.8725586,8.9461632 46.921875,9.546875 47.4140625,9.8987999 C48.0079803,10.3234673 48.53125,10.03125 48.8120117,9.6834679 C49.3735809,8.9878502 51.5078125,6.0921593 52.4355469,4.8304406 C52.6176758,4.582882 52.6757813,4.2654992 52.5932617,3.9691125 C52.5102539,3.6732141 52.388237,3.4941178 52.012207,3.3138391 C52.012207,3.3138391 49.2941208,2.2352945 46.4067382,0.7811243 C45.7981834,0.4746363 45.3124885,0.7303431 45.0634765,1.2230188 C44.8144531,1.7156946 45.012207,2.3172571 45.505371,2.5662805 C46.7582397,3.199093 47.44635,3.5383874 48.1342162,3.8496667 C31.9922484,6.6566735 16.2821044,11.5443688 1.4135741,18.4398156 C0.9125975,18.6722375 0.6782416,19.2749978 0.927246,19.7679406 C1.2812499,20.4687501 2.1191405,20.317257 2.255371,20.2542687 C17.224121,13.3123131 33.0540771,8.4199181 49.3202514,5.6688805 L47.1987305,8.5008507 Z" id="Shape"></path>
        </g>
    </g>
</svg>