<?xml version="1.0" encoding="UTF-8"?>
<svg width="58px" height="26px" viewBox="0 0 58 26" version="1.1" xmlns="http://www.w3.org/2000/svg" xmlns:xlink="http://www.w3.org/1999/xlink">
    <!-- Generator: Sketch 52.5 (67469) - http://www.bohemiancoding.com/sketch -->
    <title>Untitled 4</title>
    <desc>Created with Sketch.</desc>
    <g id="Page-1" stroke="none" stroke-width="1" fill="none" fill-rule="evenodd">
        <g id="noun_arrow-undo_1195146" fill="#000000">
            <path d="M57.073082,11.6522903 C57.0174179,13.7450637 56.027565,15.8090858 54.526207,17.28022 C47.7586136,23.9115677 24.3836098,26.2240677 1.8992539,25.5067825 C1.3476086,25.4891853 0.9109727,25.0346145 0.9246445,24.4823684 C0.9383163,23.9301223 1.3914414,23.4735793 1.9500351,23.507759 C29.3055058,24.1854934 47.0203476,21.5307082 53.1648789,15.8158645 C54.3006211,14.7582473 55.0320664,13.1425247 55.073082,11.5990676 C55.0974961,10.7099074 54.9041367,9.4208449 53.8504258,8.3300246 C51.7834092,6.1919631 48.4765244,5.5068434 45.3528062,5.1864699 L46.6590196,6.7533644 C47.0125352,7.1771925 46.9965135,7.8649519 46.5310899,8.1615675 C45.946129,8.5343626 45.3201524,8.2709425 45.1219102,8.0336378 L42.0076524,4.2973097 C41.8240586,4.0766066 41.7439805,3.7870558 41.7879258,3.5028761 C41.8328477,3.2186964 41.9969102,2.9672316 42.2400742,2.8129347 C43.3308945,2.1200636 44.4031601,1.3676222 45.4265976,0.5766066 C45.863121,0.2377394 46.4930038,0.3212355 46.8289414,0.7567824 C47.166832,1.1937941 47.0867539,1.8217238 46.6492539,2.1596144 C46.1967393,2.5091627 45.7201157,2.8336256 45.2515488,3.1674269 C48.8270493,3.5108107 52.713646,4.2758864 55.2879258,6.9403761 C56.5047226,8.1986771 57.1209335,9.8280716 57.073082,11.6522903 Z" id="Path"></path>
        </g>
    </g>
</svg>