<?xml version="1.0" encoding="UTF-8"?>
<svg width="48px" height="12px" viewBox="0 0 48 12" version="1.1" xmlns="http://www.w3.org/2000/svg" xmlns:xlink="http://www.w3.org/1999/xlink">
    <!-- Generator: Sketch 52.5 (67469) - http://www.bohemiancoding.com/sketch -->
    <title>Untitled 6</title>
    <desc>Created with Sketch.</desc>
    <g id="Page-1" stroke="none" stroke-width="1" fill="none" fill-rule="evenodd">
        <g id="noun_Arrow-Right_1236738" fill="#000000">
            <path d="M47.1319427,3.0913811 C47.1368255,2.8037834 47.0167083,2.5279045 46.8038177,2.3350334 C46.5909271,2.141674 46.300888,2.0464592 46.019638,2.0816154 L41.1866302,2.629467 C40.6378021,2.6914787 40.2432708,3.1870842 40.3057708,3.7359123 C40.3672942,4.2837639 40.8536224,4.6768303 41.4112396,4.6167717 L43.5494232,4.3744011 C42.2352142,6.5961418 40.6036224,6.4588127 40.4629974,6.4405022 C39.4532318,6.3833733 38.8262786,5.8179436 38.0323333,5.1026116 C37.1163177,4.2764397 35.9756927,3.2481194 34.0674895,3.1187249 C32.4532317,3.0069085 31.153427,3.842846 30.0157317,4.5786858 C28.9444426,5.27351 28.0059661,5.8716546 26.9122161,5.7661858 C25.7911223,5.6577874 24.7960052,4.7461663 23.7432708,3.7813225 C22.4278411,2.5772209 20.9542083,1.2085686 18.9112396,1.351635 C17.4346771,1.4531975 15.9786224,2.3189202 14.7003021,3.8555412 C14.1973724,4.4595451 13.7549896,5.1045646 13.3262787,5.7280998 C12.5450287,6.8657951 11.8067475,7.9405021 10.7960053,8.6675529 C8.9044037,10.0303459 6.0674897,9.8750724 4.3350678,8.3120841 C2.6036225,6.7505607 2.1573334,3.9434318 3.3184662,1.9209708 C3.5938568,1.4419669 3.4278412,0.8306388 2.9493256,0.5557364 C2.4688568,0.2788809 1.8585053,0.4453848 1.5840912,0.924877 C-0.0282135,3.7320059 0.5919037,7.6294668 2.995224,9.7969473 C4.3018646,10.9761465 6.0626068,11.5786856 7.8194428,11.5781973 C9.2940522,11.5781973 10.7667084,11.1538809 11.9649506,10.2905996 C13.2579194,9.3599355 14.1309662,8.0894277 14.9747162,6.8604238 C15.3965912,6.2471426 15.7940521,5.6675527 16.2374115,5.1348379 C16.8799896,4.3633535 17.8887787,3.4263418 19.0489349,3.346752 C20.2169037,3.2627676 21.2266693,4.1890372 22.3917083,5.2559317 C23.5831145,6.3472403 24.9337005,7.5840567 26.7188567,7.75642 C28.528427,7.9356192 29.8926848,7.0415762 31.1036223,6.2573966 C32.1045989,5.6089591 32.9698332,5.0484122 33.9327239,5.1138419 C35.1504973,5.1963614 35.8653411,5.841381 36.6934661,6.587963 C37.6045989,7.4092521 38.6368255,8.3399161 40.2618255,8.428295 C40.3856048,8.4488028 43.1710052,8.8020133 45.1849212,5.5310172 C45.2291107,6.4746207 45.2877044,7.298046 45.3145599,7.650463 C45.354599,8.1753653 45.7930755,8.5747794 46.3106537,8.5747794 C46.3360443,8.5747794 46.3614349,8.5738028 46.3878021,8.5718497 C46.9376068,8.5298575 47.3506927,8.049877 47.3087005,7.4990958 C47.260849,6.8667717 47.1065521,4.6807365 47.1319427,3.0913811 Z" id="Path"></path>
        </g>
    </g>
</svg>