<?xml version="1.0" encoding="UTF-8"?>
<svg width="85px" height="51px" viewBox="0 0 85 51" version="1.1" xmlns="http://www.w3.org/2000/svg" xmlns:xlink="http://www.w3.org/1999/xlink">
    <!-- Generator: Sketch 52.5 (67469) - http://www.bohemiancoding.com/sketch -->
    <title>Untitled 7</title>
    <desc>Created with Sketch.</desc>
    <g id="Page-1" stroke="none" stroke-width="1" fill="none" fill-rule="evenodd">
        <g id="noun_Arrow_498221" fill="#000000" fill-rule="nonzero">
            <path d="M1.38,29.22 C2.149,29.702 2.771,29.558 3.254,28.786 C5.274,25.327 7.988,21.77 11.401,18.118 C14.813,14.465 18.395,11.39 22.145,8.887 C31.564,2.641 39.686,1.921 46.513,6.724 C49.973,9.129 51.798,13.119 51.993,18.696 C46.031,18.405 39.974,19.849 33.824,23.018 C31.13,24.366 29.257,25.423 28.2,26.191 C25.797,27.922 24.499,29.894 24.306,32.103 C23.92,36.143 25.317,38.88 28.488,40.323 C31.274,41.476 34.638,41.43 38.582,40.178 C42.619,38.931 46.176,36.769 49.253,33.689 C52.328,30.519 54.059,26.866 54.444,22.731 C54.538,22.348 54.589,21.963 54.589,21.578 C61.892,22.731 67.757,26.721 72.18,33.544 C74.68,37.294 76.361,40.419 77.227,42.918 C75.4,41.283 72.708,39.555 69.152,37.727 C68.381,37.246 67.782,37.416 67.348,38.233 C66.917,39.049 67.134,39.654 67.998,40.035 C73.668,43.112 77.129,45.948 78.38,48.544 L78.38,48.83 C78.38,49.794 78.812,50.225 79.678,50.128 C80.062,50.128 80.399,49.984 80.688,49.697 C81.456,49.505 81.791,49.023 81.697,48.255 C81.216,43.353 82.034,38.544 84.148,33.834 C84.531,32.971 84.314,32.37 83.5,32.031 C82.682,31.698 82.13,31.913 81.842,32.681 C80.493,35.471 79.629,38.16 79.246,40.756 C78.283,38.447 76.698,35.565 74.488,32.103 C69.489,24.412 62.855,20.041 54.59,18.982 C54.491,12.348 52.282,7.496 47.956,4.42 C40.265,-0.964 31.18,-0.242 20.703,6.582 C16.761,9.178 13.061,12.399 9.599,16.242 C6.041,20.09 3.158,23.79 0.948,27.345 C0.466,28.118 0.611,28.74 1.38,29.22 Z M51.848,22.445 C51.462,25.905 49.924,29.031 47.232,31.816 C44.541,34.605 41.417,36.526 37.86,37.584 C34.494,38.737 31.754,38.835 29.641,37.872 C27.525,37.008 26.615,35.183 26.902,32.393 C27.094,30.951 28.055,29.604 29.786,28.355 C30.651,27.685 32.382,26.676 34.977,25.328 C40.838,22.446 46.464,21.148 51.848,21.434 L51.848,22.445 Z" id="Shape"></path>
        </g>
    </g>
</svg>